<svg xmlns="http://www.w3.org/2000/svg" viewBox="0 0 100 100">
  <defs>
    <clipPath id="round">
      <circle cx="50" cy="50" r="50"/>
    </clipPath>
  </defs>
  <circle cx="50" cy="50" r="50" fill="#0D9488"/>
  <g clip-path="url(#round)">
    <path d="M50 18c-7.5 0-13.5 2.5-17 6.5C29.5 28.5 28 34 28 40c0 4 1 8 2.5 13 1.5 5 3.5 11 5 17.5 1 4.5 2 8.5 3 11.5 1.2 3.5 2.5 5 4.5 5 2.2 0 3.2-2 4-5.5.8-3.5 1.5-8 3-8s2.2 4.5 3 8c.8 3.5 1.8 5.5 4 5.5 2 0 3.3-1.5 4.5-5 1-3 2-7 3-11.5 1.5-6.5 3.5-12.5 5-17.5C71 47 72 44 72 40c0-6-1.5-11.5-5-15.5C63.5 20.5 57.5 18 50 18z" fill="white"/>
  </g>
</svg>
